HIERARCHY
ROOT Root
{
	OFFSET 0.00 0.00 0.00
	CHANNELS 6 Xposition Yposition Zposition Xrotation Yrotation Zrotation
	JOINT L_Femur
	{
		OFFSET 4.56604 0.00000 0.00000
		CHANNELS 3 Xrotation Yrotation Zrotation
		JOINT L_Tibia
		{
			OFFSET 0.00000 -15.50034 0.00000
			CHANNELS 3 Xrotation Yrotation Zrotation
			JOINT L_Foot
			{
				OFFSET 0.00000 -15.64621 0.00000
				CHANNELS 3 Xrotation Yrotation Zrotation
				JOINT L_Toe
				{
					OFFSET 0.00000 -1.95275 7.28777
					CHANNELS 3 Xrotation Yrotation Zrotation
					End Site
					{
						OFFSET 0.00000 0.00000 2.95275
					}
				}
			}
			JOINT L_Cal
			{
				OFFSET 0.00000 -18.11020 0.00000
				CHANNELS 3 Xrotation Yrotation Zrotation
				JOINT L_Cal_End
				{
					OFFSET 0.00000 -2.04572 -1.18110
					CHANNELS 3 Xrotation Yrotation Zrotation
				}
			}
		}
	}
	JOINT R_Femur
	{
		OFFSET -4.56604 0.00000 0.00000
		CHANNELS 3 Xrotation Yrotation Zrotation
		JOINT R_Tibia
		{
			OFFSET 0.00000 -15.50034 0.00000
			CHANNELS 3 Xrotation Yrotation Zrotation
			JOINT R_Foot
			{
				OFFSET 0.00000 -15.64621 0.00000
				CHANNELS 3 Xrotation Yrotation Zrotation
				JOINT R_Toe
				{
					OFFSET 0.00000 -1.95275 7.28777
					CHANNELS 3 Xrotation Yrotation Zrotation
					End Site
					{
						OFFSET 0.00000 0.00000 2.95275
					}
				}
			}
			JOINT R_Cal
			{
				OFFSET 0.00000 -18.11020 0.00000
				CHANNELS 3 Xrotation Yrotation Zrotation
				JOINT R_Cal_End
				{
					OFFSET 0.00000 -2.04572 -1.18110
					CHANNELS 3 Xrotation Yrotation Zrotation
				}
			}
		}
	}
	JOINT LowerBack
	{
		OFFSET 0.00000 0.03937 0.00000
		CHANNELS 3 Xrotation Yrotation Zrotation
		JOINT Thorax
		{
			OFFSET 0.00000 14.13597 0.00000
			CHANNELS 3 Xrotation Yrotation Zrotation
			JOINT Neck
			{
				OFFSET 0.00000 5.22135 0.00000
				CHANNELS 3 Xrotation Yrotation Zrotation
				JOINT Head
				{
					OFFSET 0.00000 8.94618 0.00000
					CHANNELS 3 Xrotation Yrotation Zrotation
					End Site
					{
						OFFSET 0.00000 4.52755 0.00000
					}
				}
			}
			JOINT L_Collar
			{
				OFFSET 0.00000 5.22135 0.00000
				CHANNELS 3 Xrotation Yrotation Zrotation
				JOINT L_Humerus
				{
					OFFSET 9.57834 -0.00004 0.00000
					CHANNELS 3 Xrotation Yrotation Zrotation
					JOINT L_Elbow
					{
						OFFSET 8.88658 -0.00003 0.00000
						CHANNELS 3 Xrotation Yrotation Zrotation
						JOINT L_Wrist
						{
							OFFSET 10.82675 -0.00004 0.00000
							CHANNELS 3 Xrotation Yrotation Zrotation
						}
					}
				}
			}
			JOINT R_Collar
			{
				OFFSET 0.00000 5.22135 0.00000
				CHANNELS 3 Xrotation Yrotation Zrotation
				JOINT R_Humerus
				{
					OFFSET -9.57834 -0.00004 0.00000
					CHANNELS 3 Xrotation Yrotation Zrotation
					JOINT R_Elbow
					{
						OFFSET -8.88658 -0.00003 0.00000
						CHANNELS 3 Xrotation Yrotation Zrotation
						JOINT R_Wrist
						{
							OFFSET -10.82675 -0.00004 0.00000
							CHANNELS 3 Xrotation Yrotation Zrotation
						}
					}
				}
			}
		}
	}
}
MOTION
Frames: 12
Frame Time: 0.008333
 -42.4590 0.4436 33.5907 169.4702 41.4590 -69.3834 -52.2617 21.4441 -1.7256 10.5172 -0.0000 0.0000 -8.7497 18.8278 -6.0712 2.1087 -0.0000 -0.0000 91.7935 -2.2335 -9.7223 0.0000 -0.0000 0.0000 -61.9960 12.7790 -3.3056 19.0385 -0.0000 -0.0000 -8.7251 -13.6399 16.5027 12.1375 0.0000 -0.0000 96.1621 0.2799 17.7479 0.0000 -0.0000 -0.0000 -46.5150 3.1144 -2.8509 28.7879 -0.6556 -6.9939 12.9136 4.0422 -5.0208 -0.5780 5.9784 10.8993 54.8989 0.8639 1.7776 -50.2805 -5.6610 -66.9998 -0.0002 -42.8419 -0.0001 -0.0000 0.0000 -0.0000 35.6303 25.0189 -15.2413 -37.9183 -9.9773 67.1518 -0.0003 53.3716 0.0001 -0.0000 0.0000 -0.0000
 -42.4470 0.4998 33.5698 169.3832 41.4635 -69.2482 -52.3183 21.3072 -1.7824 10.8470 -0.0000 -0.0000 -9.2238 18.9153 -6.0457 5.0436 0.0000 -0.0000 94.7859 -1.7137 -9.5584 0.0000 0.0000 -0.0000 -62.0164 12.7932 -3.3922 19.1660 -0.0000 -0.0000 -9.0989 -13.6974 16.7299 17.1971 0.0000 0.0000 99.0853 0.2853 17.2674 0.0000 -0.0000 -0.0000 -46.6568 2.9799 -2.9588 28.9908 -0.8125 -7.0872 12.7808 4.0852 -4.7655 -0.6787 6.3687 9.7624 55.4176 1.2281 1.4015 -51.2113 -4.7692 -67.3273 -0.0002 -43.0151 -0.0001 -0.0000 0.0000 -0.0000 35.6978 25.5106 -15.8644 -37.4083 -10.7028 67.4648 -0.0003 54.2919 0.0002 -0.0000 0.0000 -0.0000
 -42.4399 0.5696 33.5615 169.2839 41.4449 -69.0730 -52.3768 21.1729 -1.9136 11.0438 -0.0000 -0.0000 -9.3956 19.1618 -5.8248 4.8370 -0.0000 0.0000 95.1414 -2.0273 -10.0627 0.0000 0.0000 0.0000 -62.0432 12.7498 -3.5173 19.1837 0.0000 0.0000 -9.1467 -13.5855 16.7921 18.0231 -0.0000 0.0000 99.6090 0.2911 17.1001 0.0000 -0.0000 -0.0000 -46.6967 2.9965 -2.9846 29.0432 -0.8853 -7.2501 12.7605 3.9483 -4.4820 -0.9014 6.6681 8.8262 55.5388 1.3472 1.1091 -51.4253 -5.4535 -66.9715 -0.0002 -42.6262 -0.0001 -0.0000 0.0000 -0.0000 34.6542 26.0859 -15.7511 -36.1496 -10.8283 67.7033 -0.0003 54.5424 0.0002 -0.0000 0.0000 -0.0000
 -42.4399 0.6243 33.5534 169.2158 41.4587 -68.9401 -52.3971 21.0660 -2.0249 11.1905 0.0000 -0.0000 -9.5284 19.2818 -5.6834 3.4345 -0.0000 0.0000 95.0142 -1.5585 -9.8801 0.0000 0.0000 0.0000 -62.1772 12.9066 -3.5815 19.4841 -0.0000 -0.0000 -9.2289 -13.6346 16.9588 17.7946 -0.0000 -0.0000 99.7617 0.2897 17.2955 0.0000 -0.0000 -0.0000 -46.7588 2.9523 -3.0783 29.1688 -0.9871 -7.4481 12.5168 3.9090 -4.1802 -0.7574 6.9030 8.1217 55.5644 1.6282 0.9932 -51.9017 -4.9611 -67.2083 -0.0002 -42.4308 -0.0001 -0.0000 0.0000 -0.0000 34.2745 26.6105 -15.9045 -35.3797 -11.1647 67.9015 -0.0003 55.1432 0.0002 -0.0000 0.0000 -0.0000
 -42.4139 0.6818 33.5497 169.1033 41.4562 -68.8913 -52.3880 21.0334 -2.0571 11.2833 0.0000 -0.0000 -9.7545 19.3047 -5.4299 3.5069 0.0000 -0.0000 95.2507 -1.7326 -9.9461 0.0000 0.0000 0.0000 -62.1674 12.8817 -3.6037 19.5389 -0.0000 0.0000 -9.2212 -13.6394 17.0596 18.1140 0.0000 -0.0000 99.7065 0.2787 17.3781 0.0000 -0.0000 -0.0000 -46.8232 2.9946 -3.0465 29.1191 -0.9927 -7.4669 12.5726 3.9203 -4.1781 -0.7018 6.9531 7.9346 55.5561 1.6234 0.9283 -51.8873 -4.9945 -67.1156 -0.0002 -42.1242 -0.0001 -0.0000 0.0000 -0.0000 33.9531 26.6358 -15.6327 -35.1789 -10.9671 68.0859 -0.0003 55.1962 0.0002 -0.0000 0.0000 -0.0000
 -42.4308 0.7484 33.5368 169.0942 41.5170 -68.7533 -52.3859 20.7412 -2.2739 11.4136 -0.0000 -0.0000 -9.8878 19.6045 -5.2218 3.4140 0.0000 0.0000 95.4127 -1.5636 -10.3122 0.0000 0.0000 -0.0000 -62.3871 12.8677 -3.7471 19.9719 0.0000 0.0000 -9.3231 -13.5411 17.0804 18.0057 -0.0000 -0.0000 99.5923 0.2927 17.2295 0.0000 0.0000 0.0000 -46.7466 2.9372 -3.1941 29.2191 -1.0690 -7.7339 12.1995 3.9306 -3.8643 -0.5897 7.1864 7.6152 55.4762 2.0474 0.7689 -52.2773 -4.8088 -67.3735 -0.0002 -42.0391 -0.0001 -0.0000 0.0000 -0.0000 33.5848 26.9550 -15.6672 -34.6076 -10.7729 68.2450 -0.0003 55.6954 0.0002 -0.0000 0.0000 -0.0000
 -42.4179 0.7975 33.5368 169.0138 41.5067 -68.7411 -52.3740 20.7093 -2.3045 11.4278 0.0000 -0.0000 -9.9833 19.6269 -5.0601 3.1401 0.0000 -0.0000 95.4017 -1.6930 -10.3240 0.0000 0.0000 -0.0000 -62.3812 12.8604 -3.7533 19.9733 -0.0000 -0.0000 -9.2495 -13.6180 17.1529 18.0153 0.0000 0.0000 99.5538 0.2871 17.2324 0.0000 0.0000 -0.0000 -46.7650 2.9654 -3.1910 29.2143 -1.0768 -7.7911 12.1689 3.9321 -3.8216 -0.6161 7.2383 7.4939 55.6721 1.9137 0.6811 -52.1941 -4.7903 -67.0160 -0.0002 -42.3381 -0.0001 -0.0000 0.0000 -0.0000 33.2518 26.9618 -15.3875 -34.6203 -10.7528 68.4720 -0.0003 55.6619 0.0002 -0.0000 0.0000 -0.0000
 -42.3940 0.8863 33.5309 168.9892 41.4091 -68.3224 -52.1240 20.5097 -2.7946 11.1053 -0.0000 0.0000 -9.9281 20.1007 -4.9086 2.7004 0.0000 0.0000 95.3582 -1.6452 -11.0480 0.0000 -0.0000 0.0000 -62.6158 12.9261 -4.0804 20.2332 -0.0000 0.0000 -9.4068 -13.3014 17.2147 18.6567 0.0000 -0.0000 99.6921 0.3916 16.8496 0.0000 0.0000 -0.0000 -47.0153 3.1617 -3.2766 29.5821 -1.0832 -8.3360 11.8088 3.6759 -3.1954 -0.6195 7.6126 6.7204 55.6206 2.3452 0.8261 -52.6503 -4.4339 -67.3577 -0.0002 -42.3015 -0.0001 -0.0000 0.0000 -0.0000 32.6124 27.2223 -15.2004 -34.0914 -10.9010 68.7670 -0.0003 56.0240 0.0002 -0.0000 0.0000 -0.0000
 -42.3875 0.9218 33.5315 168.8839 41.4274 -68.2634 -52.1435 20.5718 -2.7746 11.2381 0.0000 -0.0000 -10.0454 20.0270 -4.8712 2.1987 -0.0000 0.0000 95.2747 -1.4856 -10.9513 0.0000 -0.0000 -0.0000 -62.6409 12.9448 -4.0547 20.3277 0.0000 -0.0000 -9.3497 -13.3406 17.1764 18.2109 -0.0000 0.0000 99.8702 0.2773 16.8551 0.0000 -0.0000 -0.0000 -47.0364 3.1360 -3.3321 29.5727 -1.0924 -8.3921 11.8182 3.7412 -3.2008 -0.6209 7.6930 6.7702 55.5878 2.3670 0.7837 -52.5124 -4.6237 -67.1066 -0.0002 -42.1828 -0.0001 -0.0000 0.0000 -0.0000 32.3268 27.3159 -14.9511 -34.0042 -10.4415 68.8362 -0.0003 56.1336 0.0002 -0.0000 0.0000 -0.0000
 -42.3981 0.9787 33.5217 168.8244 41.4815 -68.2356 -52.1279 20.5921 -2.8438 11.2987 -0.0000 0.0000 -10.2051 20.0330 -4.7250 3.5908 0.0000 0.0000 95.4579 -1.5989 -10.9287 0.0000 -0.0000 -0.0000 -62.7640 12.9823 -4.0792 20.6039 0.0000 0.0000 -9.3013 -13.4185 17.3019 17.7436 0.0000 0.0000 99.9341 0.2238 17.0153 0.0000 -0.0000 -0.0000 -46.9279 3.1212 -3.3365 29.5497 -1.1781 -8.4873 11.4502 3.8624 -3.1740 -0.1315 7.6417 6.7998 55.5867 2.4764 0.6757 -52.6335 -4.5098 -67.1575 -0.0002 -42.1618 -0.0001 -0.0000 0.0000 -0.0000 32.3093 27.2859 -15.0019 -34.0614 -10.3588 69.1967 -0.0003 56.3522 0.0002 -0.0000 0.0000 -0.0000
 -42.3744 1.0522 33.5238 168.7663 41.4785 -67.9767 -51.8958 20.6184 -3.1449 11.0988 0.0000 -0.0000 -10.1103 20.1557 -4.6472 1.9832 -0.0000 -0.0000 95.2323 -1.4210 -11.1170 0.0000 -0.0000 -0.0000 -62.7984 12.7559 -4.3309 20.6411 -0.0000 0.0000 -9.3415 -13.0782 17.2789 18.5150 -0.0000 -0.0000 100.0552 0.4483 16.4081 0.0000 -0.0000 -0.0000 -47.0172 3.2574 -3.3670 29.7486 -1.2410 -8.8880 11.2583 3.9149 -3.1358 -0.2760 7.6728 7.3246 55.4197 2.7019 0.8224 -52.6884 -4.6052 -67.1258 -0.0002 -41.8954 -0.0001 -0.0000 0.0000 -0.0000 32.3292 27.1975 -14.6590 -34.4203 -9.5735 69.1302 -0.0003 56.5908 0.0002 -0.0000 0.0000 -0.0000
 -42.3623 1.0859 33.5213 168.6952 41.4812 -67.9611 -51.8564 20.6144 -3.1553 11.0832 0.0000 0.0000 -10.2609 20.1831 -4.5818 3.2409 0.0000 0.0000 95.5568 -1.5767 -11.1215 0.0000 0.0000 -0.0000 -62.8212 12.7848 -4.3258 20.7370 -0.0000 0.0000 -9.3093 -13.1320 17.4641 18.3736 -0.0000 -0.0000 99.8880 0.1501 16.6256 0.0000 -0.0000 -0.0000 -47.0560 3.2666 -3.3683 29.7263 -1.2698 -8.9316 11.1671 3.9336 -3.1136 -0.0931 7.6567 7.3665 55.5135 2.6605 0.7372 -52.6803 -4.4895 -66.9539 -0.0002 -42.1292 -0.0001 -0.0000 0.0000 -0.0000 32.2249 27.1933 -14.5820 -34.5030 -9.6047 69.5311 -0.0003 56.6491 0.0002 -0.0000 0.0000 -0.0000
